<?xml version="1.0" encoding="utf-8"?>
<!-- Generator: Adobe Illustrator 16.0.0, SVG Export Plug-In . SVG Version: 6.00 Build 0)  -->
<!DOCTYPE svg PUBLIC "-//W3C//DTD SVG 1.1//EN" "http://www.w3.org/Graphics/SVG/1.1/DTD/svg11.dtd">
<svg version="1.1" id="Layer_1" xmlns="http://www.w3.org/2000/svg" xmlns:xlink="http://www.w3.org/1999/xlink" x="0px" y="0px"
	 width="86.214px" height="25.618px" viewBox="0 0 86.214 25.618" enable-background="new 0 0 86.214 25.618" xml:space="preserve">
<g>
	<polygon fill="#FFFFFF" points="76.275,25.618 76.275,14.721 70.979,0 76.067,0 78.638,7.147 81.142,0 86.214,0 81.063,14.71 
		81.063,25.618 	"/>
	<polygon fill="#FFFFFF" points="0,25.618 0,0.013 13.114,0.013 13.114,4.802 4.788,4.802 4.788,10.422 10.512,10.422 
		10.512,15.209 4.788,15.209 4.788,20.83 13.114,20.83 13.114,25.618 	"/>
	<polygon fill="#FFFFFF" points="41.374,25.618 36.44,0 41.315,0 43.851,13.132 46.386,0 51.262,0 46.329,25.618 	"/>
	<path fill="#FFFFFF" d="M61.338,25.618c-4.046,0-7.338-3.292-7.338-7.337V7.351c0-4.046,3.292-7.338,7.338-7.338
		c4.045,0,7.338,3.292,7.338,7.338v10.93C68.676,22.326,65.384,25.618,61.338,25.618L61.338,25.618z M61.338,4.802
		c-1.406,0-2.55,1.144-2.55,2.549v10.93c0,1.405,1.144,2.549,2.55,2.549c1.407,0,2.55-1.144,2.55-2.549V7.351
		C63.888,5.945,62.745,4.802,61.338,4.802L61.338,4.802z"/>
	<polygon fill="#FFFFFF" points="27.579,25.618 22.496,12.885 22.496,25.618 17.709,25.618 17.709,0.013 22.513,0.013 
		27.596,12.746 27.596,0.013 32.385,0.013 32.385,25.618 	"/>
</g>
</svg>
